<svg width="96" height="91" viewBox="0 0 96 91" fill="none" xmlns="http://www.w3.org/2000/svg">
<path d="M0 81.6H12.48V8.48H0V0H48.96C58.88 0 67.3067 2.08 74.24 6.24C81.28 10.4 86.5067 15.8933 89.92 22.72C93.44 29.44 95.2 36.5867 95.2 44.16C95.2 53.12 93.44 61.0667 89.92 68C86.5067 74.9333 81.3333 80.3733 74.4 84.32C67.5733 88.16 59.1467 90.08 49.12 90.08H0V81.6ZM47.84 81.6C59.2533 81.6 67.7333 78.1867 73.28 71.36C78.9333 64.5333 81.76 55.5733 81.76 44.48C81.76 38.08 80.5333 32.16 78.08 26.72C75.6267 21.28 71.8933 16.9067 66.88 13.6C61.8667 10.1867 55.68 8.48 48.32 8.48H25.6V81.6H47.84Z" fill="white"/>
<path d="M42.58 61.6H46.18C47.54 61.6 48.44 61.2 48.88 60.4C49.36 59.6 49.6 58.36 49.6 56.68V28.48H44.98V25.3H58.84V28.48H54.46V56.62C54.46 59.66 53.88 61.88 52.72 63.28C51.56 64.72 49.64 65.44 46.96 65.44H42.58V61.6Z" fill="white"/>
</svg>
